<svg width="22" height="22" viewBox="0 0 22 22" fill="none" xmlns="http://www.w3.org/2000/svg">
<path d="M11 0C8.82441 0 6.69767 0.645139 4.88873 1.85383C3.07979 3.06253 1.66989 4.78049 0.83733 6.79048C0.00476611 8.80047 -0.213071 11.0122 0.211367 13.146C0.635804 15.2798 1.68345 17.2398 3.22183 18.7782C4.76021 20.3165 6.72022 21.3642 8.85401 21.7886C10.9878 22.2131 13.1995 21.9952 15.2095 21.1627C17.2195 20.3301 18.9375 18.9202 20.1462 17.1113C21.3549 15.3023 22 13.1756 22 11C21.9972 8.08348 20.8374 5.28721 18.7751 3.22492C16.7128 1.16262 13.9165 0.00280031 11 0ZM11 20.3077C9.15912 20.3077 7.35957 19.7618 5.82893 18.7391C4.29828 17.7163 3.10529 16.2627 2.40082 14.5619C1.69634 12.8611 1.51202 10.9897 1.87116 9.18416C2.2303 7.37864 3.11677 5.72017 4.41847 4.41847C5.72018 3.11676 7.37865 2.23029 9.18416 1.87115C10.9897 1.51201 12.8611 1.69634 14.5619 2.40081C16.2627 3.10529 17.7163 4.29828 18.7391 5.82892C19.7618 7.35956 20.3077 9.15911 20.3077 11C20.3049 13.4677 19.3234 15.8335 17.5784 17.5784C15.8335 19.3234 13.4677 20.3049 11 20.3077ZM14.9875 13.7817C15.1464 13.9422 15.2355 14.1588 15.2355 14.3846C15.2355 14.6104 15.1464 14.8271 14.9875 14.9875C14.8258 15.1439 14.6096 15.2313 14.3846 15.2313C14.1596 15.2313 13.9435 15.1439 13.7817 14.9875L11 12.1952L8.21827 14.9875C8.05654 15.1439 7.84036 15.2313 7.61539 15.2313C7.39041 15.2313 7.17424 15.1439 7.0125 14.9875C6.85361 14.8271 6.76447 14.6104 6.76447 14.3846C6.76447 14.1588 6.85361 13.9422 7.0125 13.7817L9.80481 11L7.0125 8.21827C6.87757 8.05386 6.80862 7.84515 6.81905 7.63272C6.82948 7.42029 6.91856 7.21934 7.06895 7.06895C7.21934 6.91856 7.4203 6.82948 7.63272 6.81905C7.84515 6.80861 8.05387 6.87757 8.21827 7.0125L11 9.80481L13.7817 7.0125C13.9461 6.87757 14.1549 6.80861 14.3673 6.81905C14.5797 6.82948 14.7807 6.91856 14.9311 7.06895C15.0814 7.21934 15.1705 7.42029 15.181 7.63272C15.1914 7.84515 15.1224 8.05386 14.9875 8.21827L12.1952 11L14.9875 13.7817Z"/>
</svg>
