<svg width="21" height="21" viewBox="0 0 21 21" fill="none" xmlns="http://www.w3.org/2000/svg">
<path d="M14.4966 4.00005C14.4966 3.80114 14.5756 3.61038 14.7163 3.46972C14.8569 3.32907 15.0477 3.25005 15.2466 3.25005H16.7466V1.75005C16.7466 1.55114 16.8256 1.36038 16.9663 1.21972C17.1069 1.07907 17.2977 1.00005 17.4966 1.00005C17.6955 1.00005 17.8863 1.07907 18.027 1.21972C18.1676 1.36038 18.2466 1.55114 18.2466 1.75005V3.25005H19.7466C19.9455 3.25005 20.1363 3.32907 20.277 3.46972C20.4176 3.61038 20.4966 3.80114 20.4966 4.00005C20.4966 4.19897 20.4176 4.38973 20.277 4.53038C20.1363 4.67104 19.9455 4.75005 19.7466 4.75005H18.2466V6.25005C18.2466 6.44897 18.1676 6.63973 18.027 6.78038C17.8863 6.92104 17.6955 7.00005 17.4966 7.00005C17.2977 7.00005 17.1069 6.92104 16.9663 6.78038C16.8256 6.63973 16.7466 6.44897 16.7466 6.25005V4.75005H15.2466C15.0477 4.75005 14.8569 4.67104 14.7163 4.53038C14.5756 4.38973 14.4966 4.19897 14.4966 4.00005ZM20.3747 9.21255C20.4576 9.72083 20.4984 10.2351 20.4966 10.7501C20.4979 12.1031 20.2167 13.4416 19.6711 14.6798C19.1255 15.918 18.3274 17.0286 17.3279 17.9407L17.206 18.0532C15.4236 19.6296 13.1262 20.4998 10.7466 20.4998C8.36707 20.4998 6.06967 19.6296 4.28724 18.0532L4.16537 17.9407C2.71648 16.6139 1.7022 14.8803 1.25544 12.9672C0.808689 11.0541 0.950304 9.05062 1.66173 7.21936C2.37316 5.38809 3.62121 3.81446 5.24233 2.70468C6.86345 1.5949 8.78202 1.00074 10.7466 1.00005C11.2616 0.998297 11.7758 1.03906 12.2841 1.12193C12.4773 1.15661 12.6491 1.26559 12.7628 1.42551C12.8765 1.58542 12.923 1.78353 12.8924 1.97734C12.8617 2.17115 12.7563 2.34522 12.5988 2.46222C12.4412 2.57922 12.2441 2.62982 12.0497 2.60318C11.6186 2.53589 11.183 2.50142 10.7466 2.50005C9.1571 2.50058 7.60157 2.96027 6.2671 3.82386C4.93264 4.68744 3.87606 5.91815 3.22443 7.36796C2.57281 8.81778 2.35389 10.425 2.59399 11.9963C2.83409 13.5675 3.523 15.036 4.57787 16.2251C5.41411 15.0123 6.59219 14.0757 7.96224 13.5344C7.22742 12.9557 6.69121 12.1623 6.42819 11.2646C6.16516 10.367 6.1884 9.4097 6.49467 8.52588C6.80094 7.64205 7.37501 6.87563 8.13705 6.3332C8.8991 5.79077 9.81123 5.49928 10.7466 5.49928C11.682 5.49928 12.5941 5.79077 13.3562 6.3332C14.1182 6.87563 14.6923 7.64205 14.9986 8.52588C15.3048 9.4097 15.3281 10.367 15.0651 11.2646C14.802 12.1623 14.2658 12.9557 13.531 13.5344C14.901 14.0757 16.0791 15.0123 16.9154 16.2251C18.2585 14.7179 18.9994 12.7688 18.9966 10.7501C18.9953 10.3137 18.9608 9.87807 18.8935 9.44693C18.8669 9.25253 18.9175 9.05542 19.0345 8.8979C19.1515 8.74038 19.3255 8.63498 19.5193 8.60431C19.7131 8.57365 19.9113 8.62016 20.0712 8.73386C20.2311 8.84757 20.3401 9.01942 20.3747 9.21255V9.21255ZM10.7466 13.0001C11.34 13.0001 11.92 12.8241 12.4133 12.4945C12.9067 12.1648 13.2912 11.6963 13.5183 11.1481C13.7453 10.5999 13.8047 9.99673 13.689 9.41478C13.5732 8.83284 13.2875 8.29829 12.8679 7.87873C12.4484 7.45918 11.9138 7.17345 11.3319 7.0577C10.7499 6.94194 10.1467 7.00135 9.59857 7.22841C9.05039 7.45548 8.58186 7.84 8.25221 8.33334C7.92257 8.82669 7.74662 9.40671 7.74662 10.0001C7.74909 10.7949 8.06596 11.5566 8.62803 12.1186C9.1901 12.6807 9.95173 12.9976 10.7466 13.0001V13.0001ZM10.7466 19.0001C12.5775 19.0027 14.3564 18.3921 15.7997 17.2657C15.257 16.4179 14.5097 15.7204 13.6267 15.2372C12.7436 14.754 11.7532 14.5008 10.7466 14.5008C9.74003 14.5008 8.74962 14.754 7.86657 15.2372C6.98353 15.7204 6.23623 16.4179 5.69349 17.2657C7.1368 18.3921 8.91578 19.0027 10.7466 19.0001V19.0001Z" stroke="black" stroke-width="0.25"/>
</svg>
