<svg width="24" height="24" viewBox="0 0 24 24" fill="#000000" xmlns="http://www.w3.org/2000/svg">
<path opacity="0.7" d="M12.0009 22.9999C13.2159 22.9999 14.2008 22.015 14.2008 20.8C14.2008 19.585 13.2159 18.6001 12.0009 18.6001C10.786 18.6001 9.80103 19.585 9.80103 20.8C9.80103 22.015 10.786 22.9999 12.0009 22.9999Z"/>
<path opacity="0.3" d="M12.0009 5.39982C13.2159 5.39982 14.2008 4.41489 14.2008 3.19991C14.2008 1.98493 13.2159 1 12.0009 1C10.786 1 9.80103 1.98493 9.80103 3.19991C9.80103 4.41489 10.786 5.39982 12.0009 5.39982Z"/>
<path opacity="0.8" d="M5.77828 20.4226C6.99326 20.4226 7.97819 19.4377 7.97819 18.2227C7.97819 17.0078 6.99326 16.0228 5.77828 16.0228C4.5633 16.0228 3.57837 17.0078 3.57837 18.2227C3.57837 19.4377 4.5633 20.4226 5.77828 20.4226Z"/>
<path opacity="0.4" d="M18.2238 7.97709C19.4388 7.97709 20.4237 6.99216 20.4237 5.77718C20.4237 4.5622 19.4388 3.57727 18.2238 3.57727C17.0089 3.57727 16.0239 4.5622 16.0239 5.77718C16.0239 6.99216 17.0089 7.97709 18.2238 7.97709Z"/>
<path opacity="0.9" d="M3.20101 14.201C4.41659 14.201 5.40202 13.2155 5.40202 12C5.40202 10.7844 4.41659 9.79895 3.20101 9.79895C1.98543 9.79895 1 10.7844 1 12C1 13.2155 1.98543 14.201 3.20101 14.201Z"/>
<path opacity="0.5" d="M20.8012 14.1999C22.0162 14.1999 23.0011 13.2149 23.0011 12C23.0011 10.785 22.0162 9.80005 20.8012 9.80005C19.5863 9.80005 18.6013 10.785 18.6013 12C18.6013 13.2149 19.5863 14.1999 20.8012 14.1999Z"/>
<path d="M5.77828 7.97819C6.99326 7.97819 7.97819 6.99326 7.97819 5.77828C7.97819 4.5633 6.99326 3.57837 5.77828 3.57837C4.5633 3.57837 3.57837 4.5633 3.57837 5.77828C3.57837 6.99326 4.5633 7.97819 5.77828 7.97819Z"/>
<path opacity="0.6" d="M18.2238 20.4237C19.4388 20.4237 20.4237 19.4388 20.4237 18.2238C20.4237 17.0089 19.4388 16.0239 18.2238 16.0239C17.0089 16.0239 16.0239 17.0089 16.0239 18.2238C16.0239 19.4388 17.0089 20.4237 18.2238 20.4237Z"/>
</svg>
