<svg width="24" height="24" viewBox="0 0 24 24" fill="none" xmlns="http://www.w3.org/2000/svg">
<path d="M13 3V21C13 21.5523 12.5523 22 12 22C11.4477 22 11 21.5523 11 21V3C11 2.44772 11.4477 2 12 2C12.5523 2 13 2.44772 13 3ZM17 7V17C17 17.5523 16.5523 18 16 18C15.4477 18 15 17.5523 15 17V7C15 6.44772 15.4477 6 16 6C16.5523 6 17 6.44772 17 7ZM9 17V7C9 6.44772 8.55228 6 8 6C7.44772 6 7 6.44772 7 7V17C7 17.5523 7.44772 18 8 18C8.55228 18 9 17.5523 9 17ZM21 10V14C21 14.5523 20.5523 15 20 15C19.4477 15 19 14.5523 19 14V10C19 9.44772 19.4477 9 20 9C20.5523 9 21 9.44772 21 10ZM5 14V10C5 9.44772 4.55228 9 4 9C3.44772 9 3 9.44772 3 10V14C3 14.5523 3.44772 15 4 15C4.55228 15 5 14.5523 5 14Z" fill="#14141A"/>
</svg>
