<svg width="24" height="24" viewBox="0 0 24 24" fill="#000000" xmlns="http://www.w3.org/2000/svg">
<path d="M10.2746 7.13387L16.1526 10.8936C16.2301 10.9432 16.2975 11.0048 16.3517 11.0756C16.6083 11.4105 16.5192 11.872 16.1526 12.1064L10.2746 15.8662C10.1385 15.9533 9.97627 16 9.81007 16C9.36268 16 9 15.6686 9 15.2598V7.74027C9 7.5884 9.05112 7.44021 9.14643 7.31579C9.403 6.98088 9.9081 6.89944 10.2746 7.13387Z" />
<path fill-rule="evenodd" clip-rule="evenodd" d="M24 12C24 18.6274 18.6274 24 12 24C5.37258 24 0 18.6274 0 12C0 5.37258 5.37258 0 12 0C18.6274 0 24 5.37258 24 12ZM22 12C22 17.5228 17.5228 22 12 22C6.47715 22 2 17.5228 2 12C2 6.47715 6.47715 2 12 2C17.5228 2 22 6.47715 22 12Z"/>
</svg>
