<svg width="24" height="24" viewBox="0 0 24 24" fill="none" xmlns="http://www.w3.org/2000/svg">
<path d="M21.75 4.5V8.25C21.75 8.44891 21.671 8.63968 21.5303 8.78033C21.3897 8.92098 21.1989 9 21 9C20.8011 9 20.6103 8.92098 20.4697 8.78033C20.329 8.63968 20.25 8.44891 20.25 8.25V5.25H17.25C17.0511 5.25 16.8603 5.17098 16.7197 5.03033C16.579 4.88968 16.5 4.69891 16.5 4.5C16.5 4.30109 16.579 4.11032 16.7197 3.96967C16.8603 3.82902 17.0511 3.75 17.25 3.75H21C21.1989 3.75 21.3897 3.82902 21.5303 3.96967C21.671 4.11032 21.75 4.30109 21.75 4.5ZM6.75 18.75H3.75V15.75C3.75 15.5511 3.67098 15.3603 3.53033 15.2197C3.38968 15.079 3.19891 15 3 15C2.80109 15 2.61032 15.079 2.46967 15.2197C2.32902 15.3603 2.25 15.5511 2.25 15.75V19.5C2.25 19.6989 2.32902 19.8897 2.46967 20.0303C2.61032 20.171 2.80109 20.25 3 20.25H6.75C6.94891 20.25 7.13968 20.171 7.28033 20.0303C7.42098 19.8897 7.5 19.6989 7.5 19.5C7.5 19.3011 7.42098 19.1103 7.28033 18.9697C7.13968 18.829 6.94891 18.75 6.75 18.75ZM21 15C20.8011 15 20.6103 15.079 20.4697 15.2197C20.329 15.3603 20.25 15.5511 20.25 15.75V18.75H17.25C17.0511 18.75 16.8603 18.829 16.7197 18.9697C16.579 19.1103 16.5 19.3011 16.5 19.5C16.5 19.6989 16.579 19.8897 16.7197 20.0303C16.8603 20.171 17.0511 20.25 17.25 20.25H21C21.1989 20.25 21.3897 20.171 21.5303 20.0303C21.671 19.8897 21.75 19.6989 21.75 19.5V15.75C21.75 15.5511 21.671 15.3603 21.5303 15.2197C21.3897 15.079 21.1989 15 21 15ZM3 9C3.19891 9 3.38968 8.92098 3.53033 8.78033C3.67098 8.63968 3.75 8.44891 3.75 8.25V5.25H6.75C6.94891 5.25 7.13968 5.17098 7.28033 5.03033C7.42098 4.88968 7.5 4.69891 7.5 4.5C7.5 4.30109 7.42098 4.11032 7.28033 3.96967C7.13968 3.82902 6.94891 3.75 6.75 3.75H3C2.80109 3.75 2.61032 3.82902 2.46967 3.96967C2.32902 4.11032 2.25 4.30109 2.25 4.5V8.25C2.25 8.44891 2.32902 8.63968 2.46967 8.78033C2.61032 8.92098 2.80109 9 3 9ZM7.5 7.5C7.30109 7.5 7.11032 7.57902 6.96967 7.71967C6.82902 7.86032 6.75 8.05109 6.75 8.25V15.75C6.75 15.9489 6.82902 16.1397 6.96967 16.2803C7.11032 16.421 7.30109 16.5 7.5 16.5C7.69891 16.5 7.88968 16.421 8.03033 16.2803C8.17098 16.1397 8.25 15.9489 8.25 15.75V8.25C8.25 8.05109 8.17098 7.86032 8.03033 7.71967C7.88968 7.57902 7.69891 7.5 7.5 7.5ZM17.25 15.75V8.25C17.25 8.05109 17.171 7.86032 17.0303 7.71967C16.8897 7.57902 16.6989 7.5 16.5 7.5C16.3011 7.5 16.1103 7.57902 15.9697 7.71967C15.829 7.86032 15.75 8.05109 15.75 8.25V15.75C15.75 15.9489 15.829 16.1397 15.9697 16.2803C16.1103 16.421 16.3011 16.5 16.5 16.5C16.6989 16.5 16.8897 16.421 17.0303 16.2803C17.171 16.1397 17.25 15.9489 17.25 15.75ZM13.5 7.5C13.3011 7.5 13.1103 7.57902 12.9697 7.71967C12.829 7.86032 12.75 8.05109 12.75 8.25V15.75C12.75 15.9489 12.829 16.1397 12.9697 16.2803C13.1103 16.421 13.3011 16.5 13.5 16.5C13.6989 16.5 13.8897 16.421 14.0303 16.2803C14.171 16.1397 14.25 15.9489 14.25 15.75V8.25C14.25 8.05109 14.171 7.86032 14.0303 7.71967C13.8897 7.57902 13.6989 7.5 13.5 7.5ZM10.5 7.5C10.3011 7.5 10.1103 7.57902 9.96967 7.71967C9.82902 7.86032 9.75 8.05109 9.75 8.25V15.75C9.75 15.9489 9.82902 16.1397 9.96967 16.2803C10.1103 16.421 10.3011 16.5 10.5 16.5C10.6989 16.5 10.8897 16.421 11.0303 16.2803C11.171 16.1397 11.25 15.9489 11.25 15.75V8.25C11.25 8.05109 11.171 7.86032 11.0303 7.71967C10.8897 7.57902 10.6989 7.5 10.5 7.5Z"/>
</svg>
