<svg width="21" height="18" viewBox="0 0 21 18" fill="none" xmlns="http://www.w3.org/2000/svg">
<path fill-rule="evenodd" clip-rule="evenodd" d="M8.64376 0.81166C9.45594 0.0630332 10.7212 0.114551 11.4698 0.926728C11.7677 1.24989 11.9497 1.66077 11.9905 2.09493L11.9993 2.28224V15.7216C11.9993 16.8262 11.1038 17.7216 9.99927 17.7216C9.5604 17.7216 9.13555 17.5773 8.78889 17.3138L8.6453 17.1936L4.10673 13.019L1.98788 13.0061C0.938054 12.9998 0.0811704 12.1854 0.005441 11.1548L0 11.0062V6.99187C0 5.93751 0.815878 5.0737 1.85074 4.99735L2 4.99187H4.1087L8.64376 0.81166ZM16.6122 5.92772L16.7064 6.01091L17.999 7.30328L19.2922 6.01091L19.3864 5.92772C19.7787 5.6227 20.3459 5.65043 20.7064 6.01091C21.0669 6.37139 21.0946 6.93863 20.7896 7.33092L20.7064 7.42512L19.413 8.71728L20.7064 10.0109C21.0969 10.4014 21.0969 11.0346 20.7064 11.4251C20.3459 11.7856 19.7787 11.8133 19.3864 11.5083L19.2922 11.4251L17.999 10.1313L16.7064 11.4251L16.6122 11.5083C16.2199 11.8133 15.6526 11.7856 15.2922 11.4251C14.9317 11.0646 14.9039 10.4974 15.209 10.1051L15.2922 10.0109L16.585 8.71728L15.2922 7.42512C14.9016 7.0346 14.9016 6.40143 15.2922 6.01091C15.6526 5.65043 16.2199 5.6227 16.6122 5.92772ZM5.4642 6.46243L9.99927 2.28223V15.7216L5.4607 11.547L5.31834 11.4277C4.97473 11.1661 4.55405 11.0216 4.11885 11.019L2 11.0062V6.99186H4.1087L4.296 6.98307C4.73017 6.94224 5.14105 6.76031 5.4642 6.46243Z" fill="#AA33FF"/>
</svg>
