<svg width="24" height="24" viewBox="0 0 24 24" fill="none" xmlns="http://www.w3.org/2000/svg">
<path fill-rule="evenodd" clip-rule="evenodd" d="M1 12C1 5.92487 5.92487 1 12 1C18.0751 1 23 5.92487 23 12C23 18.0751 18.0751 23 12 23C5.92487 23 1 18.0751 1 12ZM21 12C21 7.02944 16.9706 3 12 3C7.02944 3 3 7.02944 3 12C3 16.9706 7.02944 21 12 21C16.9706 21 21 16.9706 21 12Z" />
<path d="M16.4831 8.19515C16.806 7.88085 17.3006 7.85552 17.6512 8.11857L17.7542 8.20858L17.8388 8.30896C18.059 8.61505 18.0529 9.03412 17.825 9.33333L17.7408 9.42831L10.2374 16.7321C9.90821 17.0525 9.40392 17.0783 9.04652 16.8102L8.95293 16.7298L5.24777 13.0961C4.92749 12.7556 4.94014 12.2164 5.27602 11.8917C5.60026 11.5782 6.09529 11.554 6.44585 11.8178L6.53764 11.8969L9.59404 14.9007L16.4831 8.19515Z" />
</svg>
