<svg width="24" height="24" viewBox="0 0 24 24" fill="none" xmlns="http://www.w3.org/2000/svg">
<path d="M19.3489 7.76923C19.5786 7.78425 19.7937 7.87998 19.9506 8.03707C20.1074 8.19415 20.1944 8.40087 20.1938 8.61538V20.4615C20.1754 21.1294 19.8823 21.7651 19.3751 22.2375C18.8679 22.7099 18.1853 22.9829 17.4683 23C13.8342 23 10.2001 23 6.56606 23C5.849 22.9829 5.16639 22.7099 4.65918 22.2375C4.15197 21.7651 3.85891 21.1294 3.84052 20.4615V8.61538C3.82124 8.39097 3.89847 8.16862 4.05522 7.99724C4.21197 7.82586 4.4354 7.71949 4.67635 7.70154C4.91731 7.68359 5.15605 7.75552 5.34006 7.90151C5.52407 8.0475 5.63827 8.25559 5.65755 8.48C5.66207 8.52503 5.66207 8.57035 5.65755 8.61538C5.65755 12.5669 5.65755 16.51 5.65755 20.4615C5.65755 20.686 5.75327 20.9012 5.92365 21.0599C6.09403 21.2185 6.32511 21.3077 6.56606 21.3077C10.2001 21.3077 13.8342 21.3077 17.4683 21.3077C17.7092 21.3077 17.9403 21.2185 18.1107 21.0599C18.2811 20.9012 18.3768 20.686 18.3768 20.4615V8.61538C18.3743 8.41132 18.4511 8.2133 18.593 8.05781C18.7349 7.90232 18.9324 7.79983 19.149 7.76923C19.2154 7.76238 19.2825 7.76238 19.3489 7.76923ZM13.8978 9.46154C14.0012 9.4604 14.1036 9.48063 14.1976 9.52077C14.3472 9.57863 14.4774 9.67268 14.5749 9.79319C14.6723 9.9137 14.7334 10.0563 14.7518 10.2062C14.7541 10.2402 14.7511 10.2744 14.7427 10.3077V17.0769C14.7433 17.2059 14.7122 17.3332 14.6519 17.4492C14.5831 17.5822 14.4782 17.6962 14.3475 17.7797C14.2168 17.8633 14.065 17.9136 13.907 17.9255C13.749 17.9375 13.5904 17.9108 13.4469 17.848C13.3035 17.7852 13.1802 17.6886 13.0892 17.5677C12.9814 17.4238 12.9242 17.2523 12.9257 17.0769V10.3077C12.9196 10.2127 12.935 10.1175 12.9711 10.0285C13.0265 9.87731 13.1268 9.74386 13.2602 9.64354C13.3936 9.54322 13.5548 9.48012 13.7252 9.46154H13.8978ZM10.2637 9.46154C10.3642 9.46022 10.4637 9.48048 10.5544 9.52077C10.704 9.57863 10.8343 9.67268 10.9317 9.79319C11.0292 9.9137 11.0903 10.0563 11.1086 10.2062C11.114 10.2398 11.114 10.274 11.1086 10.3077V17.0769C11.1092 17.2059 11.0781 17.3332 11.0178 17.4492C10.949 17.5822 10.8441 17.6962 10.7134 17.7797C10.5828 17.8633 10.4309 17.9136 10.2729 17.9255C10.1149 17.9375 9.95634 17.9108 9.81288 17.848C9.66942 17.7852 9.54609 17.6886 9.45515 17.5677C9.35089 17.4222 9.29409 17.2518 9.29161 17.0769V10.3077C9.28281 10.2118 9.30162 10.1154 9.34612 10.0285C9.40155 9.87731 9.50178 9.74386 9.63522 9.64354C9.76866 9.54322 9.92986 9.48012 10.1002 9.46154H10.2637ZM7.47458 4.38462V1.84615C7.47241 1.75061 7.49095 1.65564 7.52909 1.56692C7.58452 1.41578 7.68475 1.28233 7.81819 1.182C7.95163 1.08168 8.11283 1.01858 8.28316 1H15.6966C15.8 1.00648 15.9014 1.02938 15.9965 1.06769C16.146 1.12555 16.2763 1.2196 16.3737 1.34011C16.4712 1.46062 16.5323 1.6032 16.5507 1.75308L16.5597 1.84615V4.38462H21.175H21.3294C21.5025 4.42835 21.6577 4.51877 21.7757 4.6445C21.8936 4.77024 21.969 4.92566 21.9923 5.0912C22.0156 5.25674 21.9858 5.42501 21.9067 5.57482C21.8275 5.72462 21.7025 5.84928 21.5475 5.93308C21.4194 6.02408 21.2634 6.07449 21.1023 6.07692H2.932C2.88064 6.08157 2.82892 6.08157 2.77755 6.07692C2.58849 6.05127 2.41292 5.97076 2.27581 5.84684C2.1387 5.72292 2.04703 5.56189 2.01383 5.38666C1.98062 5.21142 2.00758 5.0309 2.09087 4.87075C2.17415 4.7106 2.30953 4.57899 2.47774 4.49462C2.61348 4.41546 2.77206 4.37706 2.932 4.38462H7.47458ZM14.7427 4.38462V2.69231H9.29161V4.38462H14.7427Z"/>
</svg>
