<svg width="24" height="24" viewBox="0 0 24 24" fill="none" xmlns="http://www.w3.org/2000/svg">
<path fill-rule="evenodd" clip-rule="evenodd" d="M23 12C23 5.928 18.072 1 12 1C5.928 1 1 5.928 1 12C1 18.072 5.928 23 12 23C18.072 23 23 18.072 23 12ZM3 12C3 7.03257 7.03257 3.00001 12 3.00001C16.9674 3.00001 21 7.03257 21 12C21 16.9674 16.9674 21 12 21C7.03257 21 3 16.9674 3 12ZM12 6C12.5523 6 13 6.44772 13 7V13C13 13.5523 12.5523 14 12 14C11.4477 14 11 13.5523 11 13V7C11 6.44772 11.4477 6 12 6ZM13 17C13 17.5523 12.5524 18 12.0001 18C11.4479 18 11 17.5523 11 17C11 16.4477 11.4474 16 11.9996 16H12.0001C12.5524 16 13 16.4477 13 17Z"/>
</svg>
